<svg xmlns="http://www.w3.org/2000/svg" width="1200" height="1220" viewBox="0 0 1200 1220" role="img" aria-label="OxDeAI PDP / PEP Execution Flow">
  <rect width="1200" height="1220" fill="#ffffff"/>

  <text x="60" y="56" font-family="Inter, Arial, sans-serif" font-size="34" font-weight="700" fill="#111827">OxDeAI PDP / PEP Execution Flow</text>
  <text x="60" y="90" font-family="Inter, Arial, sans-serif" font-size="18" fill="#374151">The Policy Decision Point evaluates intent and emits authorization; the Policy Enforcement Point verifies authorization before side effects occur.</text>

  <!-- Intent -->
  <rect x="430" y="130" width="340" height="84" rx="14" fill="#f8fafc" stroke="#334155" stroke-width="2"/>
  <text x="570" y="168" text-anchor="middle" font-family="Inter, Arial, sans-serif" font-size="24" font-weight="600" fill="#0f172a">Intent</text>
  <text x="600" y="194" text-anchor="middle" font-family="Inter, Arial, sans-serif" font-size="15" fill="#475569">proposed economic action</text>

  <!-- PDP -->
  <rect x="370" y="270" width="460" height="168" rx="14" fill="#ecfdf5" stroke="#166534" stroke-width="4"/>
  <text x="600" y="318" text-anchor="middle" font-family="Inter, Arial, sans-serif" font-size="28" font-weight="700" fill="#14532d">PDP - evaluate(intent, state)</text>
  <text x="430" y="354" font-family="Inter, Arial, sans-serif" font-size="16" fill="#14532d">- deterministic evaluation</text>
  <text x="430" y="382" font-family="Inter, Arial, sans-serif" font-size="16" fill="#14532d">- fail-closed</text>
  <text x="430" y="410" font-family="Inter, Arial, sans-serif" font-size="16" fill="#14532d">- policy modules</text>

  <!-- DENY branch -->
  <rect x="130" y="500" width="220" height="72" rx="10" fill="#fef2f2" stroke="#b91c1c" stroke-width="2"/>
  <text x="240" y="545" text-anchor="middle" font-family="Inter, Arial, sans-serif" font-size="24" font-weight="700" fill="#991b1b">DENY</text>

  <rect x="100" y="620" width="280" height="74" rx="10" fill="#ffffff" stroke="#991b1b" stroke-width="2"/>
  <text x="240" y="666" text-anchor="middle" font-family="Inter, Arial, sans-serif" font-size="22" fill="#991b1b">No execution</text>

  <rect x="90" y="744" width="300" height="74" rx="10" fill="#ffffff" stroke="#7f1d1d" stroke-width="2"/>
  <text x="240" y="790" text-anchor="middle" font-family="Inter, Arial, sans-serif" font-size="20" fill="#7f1d1d">Audit event recorded</text>

  <!-- ALLOW branch -->
  <rect x="860" y="500" width="220" height="72" rx="10" fill="#f0fdf4" stroke="#15803d" stroke-width="2"/>
  <text x="970" y="545" text-anchor="middle" font-family="Inter, Arial, sans-serif" font-size="24" font-weight="700" fill="#166534">ALLOW</text>

  <rect x="800" y="620" width="340" height="76" rx="10" fill="#ffffff" stroke="#15803d" stroke-width="2"/>
  <text x="970" y="668" text-anchor="middle" font-family="Inter, Arial, sans-serif" font-size="21" fill="#166534">AuthorizationV1</text>

  <rect x="800" y="742" width="340" height="82" rx="10" fill="#fff7ed" stroke="#9a3412" stroke-width="3"/>
  <text x="970" y="778" text-anchor="middle" font-family="Inter, Arial, sans-serif" font-size="22" font-weight="600" fill="#7c2d12">PEP - verifyAuthorization()</text>
  <text x="970" y="804" text-anchor="middle" font-family="Inter, Arial, sans-serif" font-size="14" fill="#7c2d12">Execution MUST NOT occur if verification fails.</text>

  <rect x="800" y="866" width="340" height="78" rx="10" fill="#ffffff" stroke="#334155" stroke-width="2"/>
  <text x="970" y="913" text-anchor="middle" font-family="Inter, Arial, sans-serif" font-size="20" fill="#0f172a">Execute tool / external action</text>

  <rect x="800" y="984" width="340" height="74" rx="10" fill="#ffffff" stroke="#334155" stroke-width="2"/>
  <text x="970" y="1030" text-anchor="middle" font-family="Inter, Arial, sans-serif" font-size="20" fill="#0f172a">Audit event recorded</text>

  <!-- Bottom merge / proof layer -->
  <rect x="440" y="922" width="250" height="70" rx="10" fill="#ffffff" stroke="#475569" stroke-width="2"/>
  <text x="565" y="966" text-anchor="middle" font-family="Inter, Arial, sans-serif" font-size="22" fill="#0f172a">Snapshot State</text>

  <rect x="430" y="1028" width="280" height="76" rx="10" fill="#eef2ff" stroke="#4338ca" stroke-width="2"/>
  <text x="570" y="1076" text-anchor="middle" font-family="Inter, Arial, sans-serif" font-size="21" fill="#312e81">Verification Envelope</text>

  <rect x="390" y="1128" width="360" height="72" rx="10" fill="#ecfeff" stroke="#0e7490" stroke-width="2"/>
  <text x="570" y="1172" text-anchor="middle" font-family="Inter, Arial, sans-serif" font-size="20" fill="#155e75">verifyEnvelope() -> ok / invalid / inconclusive</text>

  <!-- Arrow defs -->
  <defs>
    <marker id="arrow" viewBox="0 0 10 10" refX="9" refY="5" markerWidth="8" markerHeight="8" orient="auto-start-reverse">
      <path d="M 0 0 L 10 5 L 0 10 z" fill="#334155"/>
    </marker>
  </defs>

  <!-- Top flow arrows -->
  <line x1="600" y1="214" x2="600" y2="270" stroke="#334155" stroke-width="2.5" marker-end="url(#arrow)"/>

  <!-- Branch arrows -->
  <line x1="540" y1="438" x2="250" y2="500" stroke="#334155" stroke-width="2.5" marker-end="url(#arrow)"/>
  <line x1="660" y1="438" x2="950" y2="500" stroke="#334155" stroke-width="2.5" marker-end="url(#arrow)"/>

  <!-- Deny branch -->
  <line x1="240" y1="572" x2="240" y2="620" stroke="#334155" stroke-width="2.5" marker-end="url(#arrow)"/>
  <line x1="240" y1="694" x2="240" y2="744" stroke="#334155" stroke-width="2.5" marker-end="url(#arrow)"/>

  <!-- Allow branch -->
  <line x1="970" y1="572" x2="970" y2="620" stroke="#334155" stroke-width="2.5" marker-end="url(#arrow)"/>
  <line x1="970" y1="696" x2="970" y2="742" stroke="#334155" stroke-width="2.5" marker-end="url(#arrow)"/>
  <line x1="970" y1="824" x2="970" y2="866" stroke="#334155" stroke-width="2.5" marker-end="url(#arrow)"/>
  <line x1="970" y1="944" x2="970" y2="984" stroke="#334155" stroke-width="2.5" marker-end="url(#arrow)"/>

  <!-- Merge arrows -->
  <line x1="390" y1="781" x2="440" y2="957" stroke="#334155" stroke-width="2.5" marker-end="url(#arrow)"/>
  <line x1="800" y1="1021" x2="690" y2="957" stroke="#334155" stroke-width="2.5" marker-end="url(#arrow)"/>

  <line x1="565" y1="992" x2="565" y2="1028" stroke="#334155" stroke-width="2.5" marker-end="url(#arrow)"/>
  <line x1="570" y1="1104" x2="570" y2="1128" stroke="#334155" stroke-width="2.5" marker-end="url(#arrow)"/>
</svg>
